<svg width="32" height="32" viewBox="0 0 32 32" fill="none" xmlns="http://www.w3.org/2000/svg">
<rect width="32" height="32" rx="8" fill="#202020"/>
<path fill-rule="evenodd" clip-rule="evenodd" d="M15.9998 6.28125C21.0741 6.28125 25.503 9.03928 27.8713 13.1334C27.9368 13.2466 27.9773 13.3699 27.9927 13.4955C27.9929 13.4973 27.9931 13.499 27.9933 13.5008C27.9942 13.5088 27.9951 13.5168 27.9958 13.5248C27.9959 13.5257 27.996 13.5265 27.9961 13.5274C27.9968 13.5356 27.9974 13.5439 27.998 13.5522C27.998 13.5536 27.9981 13.5551 27.9982 13.5565C27.9992 13.5733 27.9997 13.5901 27.9998 13.6069C27.9998 13.6081 27.9999 13.6093 27.9999 13.6104C27.9999 13.6185 27.9998 13.6267 27.9996 13.6348C27.9996 13.6362 27.9995 13.6377 27.9995 13.6392C27.9992 13.6468 27.9989 13.6545 27.9985 13.6621C27.9984 13.664 27.9983 13.6659 27.9982 13.6679C27.9977 13.6756 27.9972 13.6834 27.9966 13.6912C27.9965 13.6926 27.9963 13.6941 27.9962 13.6955C27.994 13.7212 27.9907 13.7468 27.9863 13.7723C27.986 13.7744 27.9856 13.7765 27.9853 13.7785C27.9839 13.786 27.9825 13.7934 27.981 13.8008C27.9807 13.8022 27.9805 13.8037 27.9802 13.8052C27.9785 13.8131 27.9768 13.8211 27.9749 13.8291C27.9747 13.8303 27.9744 13.8315 27.9741 13.8327C27.968 13.8582 27.9609 13.8836 27.9528 13.9087C27.9523 13.91 27.9519 13.9114 27.9514 13.9128C27.9489 13.9203 27.9463 13.9278 27.9436 13.9353C27.9431 13.9368 27.9425 13.9383 27.942 13.9397C27.9394 13.947 27.9367 13.9542 27.9339 13.9613C27.9331 13.9634 27.9321 13.9655 27.9313 13.9676C27.9289 13.9736 27.9264 13.9797 27.9239 13.9856C27.9232 13.9873 27.9225 13.9889 27.9218 13.9905C27.9186 13.998 27.9153 14.0055 27.9118 14.0129C27.9112 14.0142 27.9106 14.0155 27.91 14.0168C27.9066 14.0241 27.9032 14.0313 27.8996 14.0384C27.8987 14.0402 27.8979 14.0419 27.897 14.0437C27.8936 14.0504 27.8901 14.0571 27.8865 14.0638C27.8854 14.0657 27.8844 14.0676 27.8833 14.0696C27.8796 14.0764 27.8759 14.0832 27.872 14.09C27.8718 14.0903 27.8716 14.0907 27.8713 14.091C27.4804 14.7668 27.0333 15.4062 26.5364 16.0028C27.0333 16.5993 27.4804 17.2387 27.8713 17.9145C27.9368 18.0277 27.9773 18.1509 27.9927 18.2766C27.9929 18.2784 27.9931 18.2801 27.9933 18.2819C27.9942 18.2898 27.9951 18.2979 27.9958 18.3059C27.9959 18.3067 27.996 18.3076 27.9961 18.3085C27.9968 18.3167 27.9974 18.325 27.998 18.3332C27.998 18.3347 27.9981 18.3361 27.9982 18.3375C27.9992 18.3543 27.9997 18.3712 27.9998 18.388C27.9998 18.3892 27.9999 18.3903 27.9999 18.3915C27.9999 18.3996 27.9998 18.4077 27.9996 18.4158C27.9996 18.4173 27.9995 18.4188 27.9995 18.4202C27.9992 18.4279 27.9989 18.4355 27.9985 18.4432C27.9984 18.4451 27.9983 18.447 27.9982 18.4489C27.9977 18.4567 27.9972 18.4645 27.9966 18.4722C27.9965 18.4737 27.9963 18.4751 27.9962 18.4766C27.994 18.5023 27.9907 18.5279 27.9863 18.5535C27.986 18.5555 27.9856 18.5575 27.9853 18.5596C27.9839 18.567 27.9825 18.5744 27.981 18.5818C27.9807 18.5833 27.9805 18.5848 27.9802 18.5862C27.9785 18.5942 27.9768 18.6022 27.9749 18.6101C27.9747 18.6113 27.9744 18.6125 27.9741 18.6137C27.968 18.6393 27.9609 18.6646 27.9528 18.6897C27.9523 18.6911 27.9519 18.6925 27.9514 18.6939C27.9489 18.7014 27.9463 18.7089 27.9436 18.7163C27.9431 18.7178 27.9425 18.7193 27.942 18.7208C27.9393 18.728 27.9367 18.7353 27.9339 18.7425C27.9331 18.7445 27.9321 18.7466 27.9313 18.7487C27.9289 18.7547 27.9264 18.7607 27.9239 18.7667C27.9232 18.7683 27.9225 18.77 27.9218 18.7716C27.9186 18.7791 27.9153 18.7866 27.9118 18.794C27.9112 18.7953 27.9106 18.7966 27.91 18.7979C27.9066 18.8051 27.9032 18.8123 27.8996 18.8195C27.8987 18.8212 27.8979 18.823 27.897 18.8247C27.8936 18.8315 27.8901 18.8382 27.8865 18.8448C27.8854 18.8468 27.8844 18.8487 27.8833 18.8506C27.8796 18.8575 27.8759 18.8643 27.872 18.871C27.8718 18.8714 27.8716 18.8717 27.8713 18.8721C25.503 22.9662 21.0741 25.7243 15.9998 25.7243C10.9256 25.7242 6.49672 22.9662 4.12836 18.8721C4.12816 18.8718 4.12796 18.8714 4.12775 18.871C4.12387 18.8643 4.12008 18.8575 4.11636 18.8506C4.11529 18.8487 4.11419 18.8467 4.11313 18.8447C4.10983 18.8386 4.10663 18.8324 4.10347 18.8262C4.10211 18.8235 4.10078 18.8208 4.09944 18.8181C4.09613 18.8114 4.09289 18.8047 4.08974 18.798C4.08912 18.7966 4.08852 18.7953 4.08791 18.794C4.08084 18.7787 4.0742 18.7632 4.06799 18.7476C4.0673 18.7459 4.06651 18.7442 4.06583 18.7425C4.06284 18.7348 4.05999 18.7272 4.05721 18.7195C4.05698 18.7189 4.05678 18.7182 4.05655 18.7176C4.05371 18.7097 4.05097 18.7018 4.04835 18.6939C4.04789 18.6925 4.04739 18.6911 4.04694 18.6897C4.03865 18.6643 4.03144 18.6386 4.02533 18.6127C4.02515 18.6119 4.02499 18.6111 4.02482 18.6104C4.02078 18.5931 4.01723 18.5756 4.01418 18.5582C4.01394 18.5569 4.0137 18.5555 4.01347 18.5542C4.01213 18.5463 4.01091 18.5384 4.00977 18.5305C4.00954 18.529 4.00933 18.5274 4.00911 18.5258C4.00811 18.5187 4.00719 18.5115 4.00635 18.5043C4.00618 18.5029 4.00595 18.5014 4.00579 18.4999C4.00493 18.4923 4.00421 18.4846 4.00354 18.4769C4.0034 18.4754 4.00324 18.4738 4.00311 18.4722C4.00245 18.4642 4.00194 18.4561 4.00147 18.4481C4.00141 18.4469 4.0013 18.4457 4.00124 18.4446C4.00029 18.4269 3.99985 18.4091 3.99988 18.3914C3.99988 18.3906 3.99988 18.3897 3.99988 18.3889C3.99996 18.3718 4.00052 18.3547 4.00152 18.3375C4.0016 18.3361 4.00166 18.3347 4.00175 18.3332C4.00227 18.325 4.0029 18.3167 4.00363 18.3085C4.00371 18.3076 4.00379 18.3067 4.00386 18.3059C4.00464 18.2974 4.00553 18.2889 4.00654 18.2805C4.00664 18.2796 4.00671 18.2788 4.00682 18.2779C4.01004 18.2514 4.01444 18.225 4.0199 18.1987C4.02011 18.1977 4.02029 18.1966 4.0205 18.1956C4.02222 18.1875 4.02406 18.1793 4.02599 18.1712C4.02627 18.1701 4.02655 18.1689 4.02683 18.1677C4.0481 18.0801 4.08194 17.9947 4.12836 17.9145C4.51929 17.2387 4.96639 16.5993 5.46322 16.0028C4.96639 15.4062 4.51929 14.7668 4.12836 14.091C4.12816 14.0907 4.12796 14.0903 4.12775 14.09C4.12387 14.0832 4.12008 14.0764 4.11636 14.0696C4.11529 14.0676 4.11419 14.0656 4.11313 14.0636C4.10984 14.0575 4.10662 14.0513 4.10347 14.0451C4.10211 14.0424 4.10078 14.0397 4.09944 14.037C4.09613 14.0303 4.09289 14.0236 4.08974 14.0169C4.08912 14.0156 4.08853 14.0142 4.08791 14.0129C4.08085 13.9976 4.0742 13.9821 4.06799 13.9665C4.0673 13.9648 4.06651 13.9631 4.06583 13.9613C4.06285 13.9537 4.05999 13.9461 4.05721 13.9384C4.05698 13.9378 4.05678 13.9372 4.05655 13.9365C4.05371 13.9287 4.05097 13.9208 4.04835 13.9128C4.04789 13.9114 4.04739 13.91 4.04694 13.9087C4.03865 13.8832 4.03144 13.8575 4.02533 13.8316C4.02515 13.8308 4.025 13.8301 4.02482 13.8293C4.02078 13.812 4.01723 13.7946 4.01418 13.7771C4.01394 13.7758 4.0137 13.7745 4.01347 13.7731C4.01213 13.7653 4.01092 13.7574 4.00977 13.7495C4.00954 13.7479 4.00933 13.7463 4.00911 13.7448C4.00811 13.7376 4.00719 13.7304 4.00635 13.7233C4.00618 13.7218 4.00595 13.7203 4.00579 13.7189C4.00493 13.7112 4.00421 13.7035 4.00354 13.6958C4.0034 13.6943 4.00324 13.6927 4.00311 13.6912C4.00245 13.6831 4.00194 13.6751 4.00147 13.667C4.00141 13.6659 4.0013 13.6647 4.00124 13.6635C4.00029 13.6458 3.99985 13.6281 3.99988 13.6103C3.99988 13.6095 3.99988 13.6087 3.99988 13.6079C3.99996 13.5907 4.00052 13.5736 4.00152 13.5565C4.0016 13.5551 4.00166 13.5536 4.00175 13.5522C4.00227 13.5439 4.0029 13.5356 4.00363 13.5274C4.00371 13.5265 4.00379 13.5257 4.00386 13.5248C4.00464 13.5163 4.00553 13.5078 4.00654 13.4994C4.00664 13.4985 4.00671 13.4977 4.00682 13.4969C4.01004 13.4703 4.01444 13.4439 4.0199 13.4176C4.0201 13.4166 4.02029 13.4156 4.0205 13.4145C4.02222 13.4064 4.02406 13.3983 4.02599 13.3902C4.02627 13.389 4.02655 13.3878 4.02683 13.3867C4.0481 13.299 4.08194 13.2137 4.12836 13.1334C6.49672 9.03928 10.9256 6.28126 15.9998 6.28125ZM25.2032 17.3932C22.7712 19.5984 19.5429 20.9432 15.9998 20.9432C15.9992 20.9432 15.9985 20.9431 15.9978 20.9431C15.9974 20.9431 15.9969 20.9432 15.9965 20.9432C15.9944 20.9432 15.9922 20.9431 15.9901 20.9431C12.4509 20.9407 9.22618 19.5964 6.7964 17.3932C6.53958 17.7133 6.29906 18.047 6.07616 18.3933C8.17579 21.6548 11.8364 23.8118 15.9998 23.8118C20.1633 23.8118 23.8239 21.6547 25.9235 18.3933C25.7006 18.047 25.46 17.7133 25.2032 17.3932ZM15.9914 12.9747C14.3214 12.9774 12.9685 14.3321 12.9685 16.0028C12.9685 17.6734 14.3214 19.028 15.9914 19.0307C15.9935 19.0307 15.9956 19.0307 15.9977 19.0307C17.6695 19.0301 19.0245 17.6747 19.0245 16.0028C19.0245 14.3308 17.6695 12.9754 15.9977 12.9747C15.9956 12.9747 15.9935 12.9747 15.9914 12.9747ZM20.4388 13.8387C20.7578 14.4922 20.9369 15.2266 20.9369 16.0028C20.9369 16.7789 20.7578 17.5132 20.4388 18.1668C21.7159 17.6476 22.8816 16.9111 23.89 16.0028C22.8816 15.0944 21.7159 14.3579 20.4388 13.8387ZM11.5524 13.8421C10.2786 14.3611 9.11578 15.0964 8.10964 16.0028C9.11578 16.9091 10.2786 17.6444 11.5524 18.1634C11.2345 17.5107 11.0561 16.7776 11.0561 16.0028C11.0561 15.2279 11.2345 14.4948 11.5524 13.8421ZM15.9998 8.19366C11.8364 8.19366 8.17579 10.3507 6.07616 13.6122C6.29905 13.9584 6.53959 14.2922 6.7964 14.6123C9.22841 12.407 12.4568 11.0623 15.9998 11.0623C19.5429 11.0623 22.7712 12.407 25.2032 14.6123C25.46 14.2922 25.7006 13.9585 25.9235 13.6122C23.8239 10.3508 20.1633 8.19366 15.9998 8.19366Z" fill="#F9F8F7"/>
</svg>
