<svg width="380" height="101" viewBox="0 0 380 101" fill="none" xmlns="http://www.w3.org/2000/svg">
<path fill-rule="evenodd" clip-rule="evenodd" d="M62.0536 0.174438C88.1516 0.174441 110.931 14.3596 123.112 35.4166C123.448 35.9989 123.656 36.633 123.736 37.2793C123.737 37.2883 123.738 37.2973 123.739 37.3063C123.744 37.3474 123.748 37.3886 123.752 37.4297C123.752 37.4341 123.753 37.4386 123.753 37.443C123.757 37.4854 123.76 37.528 123.763 37.5705C123.763 37.5779 123.764 37.5853 123.764 37.5927C123.769 37.679 123.772 37.7654 123.772 37.8519C123.772 37.858 123.773 37.8641 123.773 37.8702C123.773 37.9119 123.772 37.9536 123.771 37.9953C123.771 38.0029 123.771 38.0105 123.771 38.018C123.769 38.0573 123.768 38.0966 123.766 38.1359C123.765 38.1458 123.765 38.1557 123.764 38.1655C123.762 38.2055 123.759 38.2455 123.756 38.2854C123.755 38.2928 123.755 38.3003 123.754 38.3078C123.742 38.44 123.725 38.5718 123.703 38.7029C123.701 38.7135 123.699 38.7242 123.697 38.7347C123.691 38.7729 123.683 38.811 123.676 38.849C123.674 38.8566 123.673 38.8642 123.671 38.8717C123.663 38.9127 123.654 38.9538 123.644 38.9946C123.643 39.0008 123.642 39.0071 123.64 39.0132C123.609 39.1445 123.572 39.275 123.53 39.404C123.528 39.4111 123.526 39.4184 123.523 39.4255C123.511 39.4641 123.497 39.5026 123.483 39.541C123.481 39.5486 123.478 39.5562 123.475 39.5639C123.461 39.601 123.448 39.6381 123.433 39.675C123.429 39.6858 123.424 39.6965 123.42 39.7073C123.408 39.7382 123.395 39.7692 123.382 39.7999C123.378 39.8083 123.375 39.8168 123.371 39.8252C123.355 39.8636 123.338 39.9019 123.32 39.94C123.317 39.9467 123.314 39.9537 123.311 39.9604C123.293 39.9976 123.275 40.0346 123.257 40.0713C123.253 40.0803 123.248 40.0894 123.244 40.0984C123.226 40.133 123.208 40.1674 123.189 40.2018C123.184 40.2118 123.179 40.2217 123.173 40.2317C123.154 40.2667 123.135 40.3019 123.115 40.3365C123.114 40.3384 123.113 40.3402 123.112 40.3421C121.101 43.8178 118.801 47.1061 116.246 50.1744C118.801 53.2428 121.101 56.5311 123.112 60.0068C123.448 60.589 123.656 61.2231 123.736 61.8694C123.737 61.8784 123.738 61.8875 123.739 61.8964C123.744 61.9375 123.748 61.9787 123.752 62.0199C123.752 62.0243 123.753 62.0289 123.753 62.0334C123.757 62.0758 123.76 62.1182 123.763 62.1607C123.763 62.168 123.764 62.1755 123.764 62.1829C123.769 62.2692 123.772 62.3558 123.772 62.4423C123.772 62.4483 123.773 62.4543 123.773 62.4604C123.773 62.502 123.772 62.5438 123.771 62.5855C123.771 62.593 123.771 62.6006 123.771 62.6081C123.769 62.6474 123.768 62.6868 123.766 62.726C123.765 62.7359 123.765 62.7458 123.764 62.7557C123.762 62.7956 123.759 62.8356 123.756 62.8755C123.755 62.883 123.755 62.8905 123.754 62.8979C123.742 63.0302 123.725 63.1621 123.703 63.2933C123.701 63.3039 123.699 63.3144 123.697 63.3249C123.691 63.3631 123.683 63.4011 123.676 63.4392C123.674 63.4467 123.673 63.4543 123.671 63.4618C123.663 63.5029 123.654 63.5439 123.644 63.5848C123.643 63.5909 123.642 63.5972 123.64 63.6034C123.609 63.7347 123.572 63.8651 123.53 63.9942C123.528 64.0013 123.526 64.0085 123.523 64.0156C123.511 64.0543 123.497 64.0927 123.483 64.1311C123.481 64.1387 123.478 64.1464 123.475 64.154C123.461 64.1912 123.448 64.2285 123.433 64.2654C123.429 64.2761 123.424 64.2867 123.42 64.2975C123.408 64.3284 123.395 64.3593 123.382 64.39C123.378 64.3984 123.375 64.407 123.371 64.4153C123.355 64.4538 123.338 64.4922 123.32 64.5303C123.317 64.5371 123.314 64.5439 123.311 64.5506C123.293 64.5877 123.275 64.6247 123.257 64.6615C123.253 64.6705 123.248 64.6795 123.244 64.6885C123.226 64.7232 123.208 64.7576 123.189 64.7919C123.184 64.8019 123.179 64.8119 123.173 64.8218C123.154 64.8569 123.135 64.892 123.115 64.9267C123.114 64.9286 123.113 64.9304 123.112 64.9322C110.931 85.9892 88.1516 100.174 62.0536 100.174C35.9556 100.174 13.1768 85.9892 0.995796 64.9322C0.994739 64.9304 0.993716 64.9285 0.992662 64.9267C0.972658 64.892 0.953169 64.8569 0.934077 64.8218C0.928552 64.8117 0.922892 64.8016 0.917442 64.7914C0.90049 64.7598 0.88399 64.7279 0.867778 64.696C0.86075 64.6821 0.853934 64.6682 0.847044 64.6543C0.830009 64.6199 0.813323 64.5855 0.797139 64.5508C0.793957 64.544 0.790884 64.5372 0.787736 64.5303C0.751392 64.4516 0.71724 64.372 0.685273 64.2919C0.68172 64.283 0.677682 64.2743 0.674183 64.2654C0.658811 64.2262 0.644151 64.1867 0.629823 64.1473C0.628661 64.1441 0.6276 64.1408 0.626447 64.1376C0.611843 64.0971 0.597764 64.0564 0.584257 64.0156C0.581895 64.0085 0.579352 64.0013 0.577024 63.9942C0.534358 63.8633 0.497274 63.731 0.465882 63.5978C0.464959 63.5939 0.464144 63.5899 0.46323 63.586C0.442483 63.497 0.424218 63.4075 0.408503 63.3177C0.40731 63.3108 0.40605 63.304 0.404886 63.2972C0.39798 63.2567 0.391726 63.216 0.38584 63.1754C0.384679 63.1674 0.383587 63.1593 0.382465 63.1513C0.37731 63.1145 0.372556 63.0776 0.368241 63.0407C0.367361 63.0331 0.366192 63.0255 0.365348 63.018C0.360928 62.9786 0.357239 62.9391 0.353775 62.8996C0.353073 62.8916 0.352268 62.8835 0.351606 62.8755C0.348183 62.8342 0.345543 62.7928 0.343167 62.7513C0.342824 62.7454 0.342283 62.7392 0.341962 62.7333C0.337075 62.6422 0.334795 62.551 0.33497 62.4599C0.334978 62.4556 0.334951 62.4513 0.33497 62.4471C0.33537 62.359 0.338277 62.2709 0.343408 62.1829C0.343838 62.1755 0.344151 62.168 0.344614 62.1607C0.347282 62.1182 0.350488 62.0758 0.354257 62.0334C0.354652 62.0289 0.355056 62.0243 0.355463 62.0199C0.359454 61.9764 0.364053 61.9329 0.369205 61.8895C0.369725 61.8851 0.37012 61.8806 0.370652 61.8762C0.387222 61.7397 0.409864 61.6038 0.437915 61.4688C0.439002 61.4635 0.439946 61.4581 0.44105 61.4528C0.449885 61.411 0.459318 61.3691 0.469257 61.3275C0.470698 61.3214 0.472133 61.3154 0.473597 61.3094C0.582985 60.8586 0.757001 60.4196 0.995796 60.0068C3.00641 56.5311 5.30594 53.2428 7.8613 50.1744C5.30594 47.1061 3.00641 43.8178 0.995796 40.3421C0.994743 40.3403 0.993711 40.3384 0.992662 40.3365C0.972658 40.3019 0.953169 40.2667 0.934077 40.2317C0.928535 40.2215 0.922907 40.2113 0.917442 40.2011C0.900512 40.1695 0.88397 40.1377 0.867778 40.1058C0.86075 40.092 0.853934 40.078 0.847044 40.0641C0.830007 40.0298 0.813326 39.9953 0.797139 39.9607C0.793933 39.9538 0.790908 39.9468 0.787736 39.94C0.751399 39.8613 0.717234 39.7818 0.685273 39.7018C0.68171 39.6928 0.677691 39.6839 0.674183 39.675C0.658829 39.6359 0.644135 39.5965 0.629823 39.5571C0.628661 39.5539 0.627599 39.5507 0.626447 39.5475C0.611846 39.507 0.597761 39.4662 0.584257 39.4255C0.581898 39.4183 0.579349 39.4111 0.577024 39.404C0.534358 39.2732 0.497274 39.1409 0.465882 39.0077C0.464957 39.0037 0.464146 38.9998 0.46323 38.9958C0.442481 38.9068 0.42422 38.8173 0.408503 38.7275C0.407308 38.7207 0.406052 38.7139 0.404886 38.707C0.397978 38.6665 0.391727 38.6259 0.38584 38.5853C0.384677 38.5772 0.383589 38.5692 0.382465 38.5612C0.37731 38.5243 0.372556 38.4874 0.368241 38.4505C0.367361 38.443 0.366192 38.4354 0.365348 38.4278C0.360928 38.3884 0.357239 38.349 0.353775 38.3095C0.353073 38.3015 0.352268 38.2934 0.351606 38.2854C0.348183 38.244 0.345543 38.2026 0.343167 38.1612C0.342824 38.1552 0.342283 38.1491 0.341962 38.1431C0.337074 38.0521 0.334795 37.9609 0.33497 37.8697C0.334978 37.8655 0.334951 37.8612 0.33497 37.8569C0.335369 37.7688 0.338278 37.6807 0.343408 37.5927C0.343838 37.5853 0.344151 37.5779 0.344614 37.5705C0.347284 37.528 0.350483 37.4854 0.354257 37.443C0.35465 37.4386 0.35506 37.4341 0.355463 37.4297C0.359457 37.3862 0.364047 37.3425 0.369205 37.2991C0.36972 37.2947 0.370125 37.2904 0.370652 37.286C0.387226 37.1495 0.409853 37.0135 0.437915 36.8784C0.438993 36.8732 0.439954 36.8679 0.44105 36.8627C0.449887 36.8208 0.459316 36.779 0.469257 36.7373C0.470697 36.7313 0.472133 36.7253 0.473597 36.7192C0.582985 36.2684 0.757001 35.8294 0.995796 35.4166C13.1768 14.3597 35.9556 0.174483 62.0536 0.174438ZM109.389 57.3259C96.8804 68.6679 80.2763 75.5843 62.0536 75.5843C62.0501 75.5843 62.0467 75.584 62.0432 75.584C62.041 75.584 62.0387 75.5843 62.0365 75.5843C62.0255 75.5843 62.0144 75.5841 62.0034 75.584C43.8003 75.5713 27.2151 68.6576 14.7181 57.3259C13.3973 58.9721 12.1602 60.6887 11.0138 62.4695C21.8127 79.244 40.64 90.3384 62.0536 90.3385C83.4671 90.3385 102.294 79.244 113.093 62.4695C111.947 60.6887 110.71 58.9722 109.389 57.3259ZM62.0104 34.6005C53.4212 34.6145 46.4626 41.5819 46.4626 50.1744C46.4626 58.767 53.4212 65.7341 62.0104 65.7481C62.0212 65.7481 62.032 65.7481 62.0427 65.7481C70.641 65.7446 77.6101 58.7735 77.6101 50.1744C77.6101 41.5754 70.641 34.604 62.0427 34.6005C62.032 34.6006 62.0212 34.6005 62.0104 34.6005ZM84.8845 39.0441C86.525 42.4054 87.4461 46.1823 87.4461 50.1744C87.4461 54.1665 86.525 57.9433 84.8845 61.3046C91.4529 58.6343 97.4483 54.8461 102.634 50.1744C97.4483 45.5028 91.4529 41.7144 84.8845 39.0441ZM39.1793 39.0617C32.6278 41.731 26.6473 45.513 21.4725 50.1744C26.6473 54.8358 32.6278 58.6176 39.1793 61.287C37.5442 57.9301 36.6266 54.1595 36.6266 50.1744C36.6266 46.1893 37.5442 42.4186 39.1793 39.0617ZM62.0536 10.0104C40.64 10.0104 21.8127 21.1048 11.0138 37.8794C12.1602 39.6601 13.3973 41.3765 14.7181 43.0228C27.2265 31.6807 43.8309 24.7646 62.0536 24.7646C80.2762 24.7646 96.8804 31.6808 109.389 43.0228C110.71 41.3765 111.947 39.6601 113.093 37.8794C102.294 21.1049 83.4671 10.0104 62.0536 10.0104Z" fill="#F9F8F7"/>
<path d="M366.38 86.7094V36.0966H378.09V86.7094H366.38ZM372.09 27.774C368.219 27.774 365.122 24.8708 365.122 21.0966C365.122 17.2257 368.219 14.3224 372.09 14.3224C375.961 14.3224 379.057 17.2257 379.057 21.0966C379.057 24.8708 375.961 27.774 372.09 27.774Z" fill="#F9F8F7"/>
<path d="M335.043 87.6739C327.011 87.6739 321.205 83.7062 318.495 78.5772V86.7062H306.785V12.6741H318.495V44.2224C321.302 39.3837 327.592 35.0289 335.043 35.0289C347.721 35.0289 357.495 44.416 357.495 60.7708V61.545C357.495 77.803 348.108 87.6739 335.043 87.6739ZM332.14 78.3836C340.753 78.3836 345.495 72.5772 345.495 61.7385V60.9643C345.495 49.7385 339.689 44.2224 332.043 44.2224C323.914 44.2224 318.108 49.7385 318.108 60.9643V61.7385C318.108 73.0611 323.624 78.3836 332.14 78.3836Z" fill="#F9F8F7"/>
<path d="M272.205 78.5768C280.915 78.5768 286.141 72.093 286.141 61.7381V61.0607C286.141 50.6091 280.915 44.222 272.205 44.222C263.495 44.222 258.173 50.5123 258.173 60.9639V61.7381C258.173 72.093 263.302 78.5768 272.205 78.5768ZM272.108 87.6736C257.205 87.6736 246.173 77.3188 246.173 61.9317V61.1575C246.173 45.4801 257.302 35.0285 272.205 35.0285C287.011 35.0285 298.14 45.3833 298.14 60.8672V61.6414C298.14 77.4155 287.011 87.6736 272.108 87.6736Z" fill="#F9F8F7"/>
<path d="M208.49 87.6721C186.329 87.6721 173.942 72.9625 173.942 52.5432V51.769C173.942 31.1561 188.264 16.4465 208.49 16.4465C223.297 16.4465 236.458 23.2207 238.297 39.769H225.426C223.877 30.5755 217.684 26.6077 208.684 26.6077C195.135 26.6077 187.297 36.6722 187.297 51.8658V52.64C187.297 67.4464 194.168 77.6077 208.684 77.6077C221.651 77.6077 226.974 69.769 227.361 60.1883H209.942V50.5109H240.039V56.898C240.039 76.0593 228.039 87.6721 208.49 87.6721Z" fill="#F9F8F7"/>
</svg>
